<?xml version="1.0" encoding="utf-8"?>
<!-- Generator: Adobe Illustrator 24.3.0, SVG Export Plug-In . SVG Version: 6.00 Build 0)  -->
<svg version="1.1" id="Layer_1" xmlns="http://www.w3.org/2000/svg" xmlns:xlink="http://www.w3.org/1999/xlink" x="0px" y="0px"
	 viewBox="0 0 22.76 22.76" style="enable-background:new 0 0 22.76 22.76;" xml:space="preserve">
<style type="text/css">
	.st0{fill-rule:evenodd;clip-rule:evenodd;fill:#BBBDBF;}
</style>
<path class="st0" d="M11.37,0C2.24,0,0,2.24,0,11.37c0,9.13,2.24,11.4,11.37,11.4s11.4-2.27,11.4-11.4C22.76,2.24,20.49,0,11.37,0z
	 M17.75,8.82h-0.15c-0.38,0-0.76-0.01-1.14,0c-0.52,0.02-0.9,0.22-0.92,0.86c-0.01,0.47-0.02,1.56-0.02,1.56s1.22,0,1.75,0
	c0.13,0,0.27,0,0.42,0c-0.1,0.75-0.19,1.47-0.29,2.21h-1.86v5.5h-2.29v-5.52h-1.87v-2.19h1.88v-0.17c0-0.44-0.01-0.88,0-1.33
	c0.01-0.28,0.02-0.57,0.07-0.84c0.12-0.67,0.43-1.24,0.99-1.64c0.49-0.35,1.05-0.49,1.64-0.5c0.39-0.01,0.78,0.01,1.16,0.02
	c0.21,0.01,0.43,0.04,0.62,0.06V8.82z"/>
</svg>
