<?xml version="1.0" encoding="utf-8"?>
<!-- Generator: Adobe Illustrator 19.2.0, SVG Export Plug-In . SVG Version: 6.00 Build 0)  -->
<svg version="1.1" id="Camada_1" focusable="false" xmlns="http://www.w3.org/2000/svg" xmlns:xlink="http://www.w3.org/1999/xlink"
	 x="0px" y="0px" viewBox="0 0 70 50" style="enable-background:new 0 0 70 50;" xml:space="preserve">
<style type="text/css">
	.st0{fill:#FFFFFF;}
</style>
<path class="st0" d="M65.4,15.1C47.6-1,20.1-1,2.4,15.1c-0.7,0.6-0.7,1.6,0,2.3l3.4,3.3c0.6,0.6,1.6,0.6,2.2,0
	c14.6-13.1,37.1-13.1,51.7,0c0.6,0.6,1.6,0.6,2.2,0l3.4-3.3C66,16.7,66,15.7,65.4,15.1L65.4,15.1z M33.9,34.4
	c-3.5,0-6.4,2.8-6.4,6.3c0,3.5,2.9,6.3,6.4,6.3s6.4-2.8,6.4-6.3C40.3,37.2,37.4,34.4,33.9,34.4z M54.1,26.2c-11.5-10-29-10-40.5,0
	c-0.7,0.6-0.7,1.6-0.1,2.3l3.4,3.3c0.6,0.6,1.6,0.6,2.2,0.1c8.4-7.1,21-7.1,29.3,0c0.6,0.5,1.6,0.5,2.2-0.1l3.4-3.3
	C54.9,27.9,54.8,26.8,54.1,26.2z"/>
</svg>
