<?xml version="1.0" encoding="utf-8"?>
<!-- Generator: Adobe Illustrator 19.2.0, SVG Export Plug-In . SVG Version: 6.00 Build 0)  -->
<svg version="1.1" id="Camada_1" focusable="false" xmlns="http://www.w3.org/2000/svg" xmlns:xlink="http://www.w3.org/1999/xlink"
	 x="0px" y="0px" viewBox="0 0 70 50" style="enable-background:new 0 0 70 50;" xml:space="preserve">
<style type="text/css">
	.st0{fill:#FFFFFF;}
</style>
<path class="st0" d="M44.4,12.5c-2.7,0-5.3,0.4-7.5,1.3l1.2-12c0.1-1-0.8-1.8-1.8-1.7c-7.8,1-13.8,7.6-13.8,15.6
	c0,2.7,0.4,5.3,1.3,7.5l-12-1.2c-1-0.1-1.8,0.8-1.7,1.8c1,7.8,7.6,13.8,15.6,13.8c2.7,0,5.3-0.4,7.5-1.3l-1.2,12
	c-0.1,1,0.8,1.8,1.8,1.7c7.8-1,13.8-7.6,13.8-15.6c0-2.7-0.4-5.3-1.3-7.5l12,1.2c1,0.1,1.8-0.8,1.7-1.8C59,18.5,52.4,12.5,44.4,12.5
	L44.4,12.5z M35,28.1c-1.7,0-3.1-1.4-3.1-3.1s1.4-3.1,3.1-3.1c1.7,0,3.1,1.4,3.1,3.1S36.7,28.1,35,28.1z"/>
</svg>
