<?xml version="1.0" encoding="utf-8"?>
<!-- Generator: Adobe Illustrator 19.2.0, SVG Export Plug-In . SVG Version: 6.00 Build 0)  -->
<svg version="1.1" id="Camada_1" focusable="false" xmlns="http://www.w3.org/2000/svg" xmlns:xlink="http://www.w3.org/1999/xlink"
	 x="0px" y="0px" viewBox="0 0 70 50" style="enable-background:new 0 0 70 50;" xml:space="preserve">
<style type="text/css">
	.st0{fill:#FFFFFF;}
</style>
<path class="st0" d="M35,1.5c0.1,0.5,1.6,9.2,1.6,12.6c0,5.1-2.7,8.7-6.8,10.2l1.3,23.3c0.1,1.3-1,2.5-2.4,2.5h-6.3
	C21,50,20,48.9,20,47.5l1.3-23.3c-4.1-1.5-6.8-5.1-6.8-10.2c0-3.4,1.5-12.1,1.6-12.6c0.3-2,4.5-2,4.7,0.1v13.8
	c0.1,0.3,1.5,0.3,1.6,0c0.1-2.5,0.8-13.6,0.8-13.8c0.3-2,4.4-2,4.7,0c0,0.3,0.7,11.4,0.8,13.8c0.1,0.3,1.5,0.3,1.6,0V1.6
	C30.5-0.5,34.7-0.5,35,1.5z M46.7,29.4l-1.5,18.1c-0.1,1.4,1,2.5,2.4,2.5h5.5c1.3,0,2.4-1,2.4-2.3V2.3c0-1.3-1.1-2.3-2.4-2.3
	C45,0,31.3,17.4,46.7,29.4L46.7,29.4z"/>
</svg>
