<?xml version="1.0" encoding="utf-8"?>
<!-- Generator: Adobe Illustrator 24.3.0, SVG Export Plug-In . SVG Version: 6.00 Build 0)  -->
<svg version="1.1" id="Layer_1" xmlns="http://www.w3.org/2000/svg" xmlns:xlink="http://www.w3.org/1999/xlink" x="0px" y="0px"
	 viewBox="0 0 22.76 22.76" style="enable-background:new 0 0 22.76 22.76;" xml:space="preserve">
<style type="text/css">
	.st0{fill-rule:evenodd;clip-rule:evenodd;fill:#BBBDBF;}
</style>
<path class="st0" d="M11.37,0C2.24,0,0,2.24,0,11.37s2.24,11.4,11.37,11.4s11.4-2.27,11.4-11.4S20.49,0,11.37,0L11.37,0z M5.67,7.63
	l4,2.86l1.08,0.79c0.17,0.11,0.4,0.17,0.6,0.17c0.23,0,0.43-0.06,0.62-0.17l5.1-3.71c-0.17-1.11-1.11-1.93-2.27-1.93H7.94
	C6.77,5.64,5.84,6.49,5.67,7.63L5.67,7.63z M5.67,14.66l3.23-3.15L5.67,9.13V14.66z M16.7,16.13l-3.32-3.29l-0.62-0.6L12.7,12.3
	c-0.43,0.26-0.88,0.4-1.36,0.4c-0.45,0-0.94-0.14-1.33-0.4l-0.06-0.06L9.3,12.87l0,0l-0.14,0.14l-3.12,3.03h0.03l-0.06,0.03
	c0.43,0.62,1.13,1.05,1.93,1.05h6.86C15.59,17.12,16.27,16.72,16.7,16.13L16.7,16.13z M17.09,9.1l-3.32,2.41l3.32,3.26V9.1z"/>
</svg>
