<?xml version="1.0" encoding="utf-8"?>
<!-- Generator: Adobe Illustrator 19.2.0, SVG Export Plug-In . SVG Version: 6.00 Build 0)  -->
<svg version="1.1" id="Camada_1" focusable="false" xmlns="http://www.w3.org/2000/svg" xmlns:xlink="http://www.w3.org/1999/xlink"
	 x="0px" y="0px" viewBox="0 0 70 50" style="enable-background:new 0 0 70 50;" xml:space="preserve">
<style type="text/css">
	.st0{fill:#FFFFFF;}
</style>
<path class="st0" d="M22.2,37.6h19.2c5.3,0,9.6-4.2,9.6-9.4h3.2c7.1,0,12.8-5.6,12.8-12.6S61.2,3,54.2,3H15c-1.3,0-2.4,1.1-2.4,2.4
	v22.8C12.6,33.3,16.9,37.6,22.2,37.6z M54.2,9.3c3.5,0,6.4,2.8,6.4,6.3s-2.9,6.3-6.4,6.3H51V9.3H54.2z M58.9,47H7.8
	c-4.8,0-6.1-6.3-3.6-6.3h58.3C65,40.7,63.7,47,58.9,47L58.9,47z"/>
</svg>
