<?xml version="1.0" encoding="utf-8"?>
<!-- Generator: Adobe Illustrator 24.3.0, SVG Export Plug-In . SVG Version: 6.00 Build 0)  -->
<svg version="1.1" id="Layer_1" xmlns="http://www.w3.org/2000/svg" xmlns:xlink="http://www.w3.org/1999/xlink" x="0px" y="0px"
	 viewBox="0 0 22.76 22.76" style="enable-background:new 0 0 22.76 22.76;" xml:space="preserve">
<style type="text/css">
	.st0{fill-rule:evenodd;clip-rule:evenodd;fill:#BBBDBF;}
</style>
<path class="st0" d="M11.37,0C2.24,0,0,2.24,0,11.37s2.24,11.4,11.37,11.4s11.4-2.27,11.4-11.4S20.49,0,11.37,0L11.37,0z
	 M14.43,9.18c-1.36,0-1.98,0.48-2.41,1.13V9.69c0-0.23-0.17-0.4-0.4-0.4H9.81c-0.2,0-0.37,0.17-0.37,0.4v7.4
	c0,0.2,0.17,0.37,0.37,0.37h1.81c0.23,0,0.4-0.17,0.4-0.37v-3.97c0.03-0.54,0.28-1.73,1.42-1.73c1.5,0,1.36,1.73,1.36,2.27v3.43
	c0,0.2,0.17,0.37,0.37,0.37h1.9c0.2,0,0.37-0.17,0.37-0.37v-3.54C17.43,11.99,17.46,9.18,14.43,9.18L14.43,9.18z M6.97,5.27
	c-0.91,0-1.64,0.77-1.64,1.67s0.74,1.67,1.64,1.67c0.94,0,1.67-0.77,1.67-1.67S7.91,5.27,6.97,5.27L6.97,5.27z M7.85,9.3H6.09
	c-0.23,0-0.4,0.2-0.4,0.43v7.34c0,0.23,0.17,0.4,0.4,0.4h1.76c0.23,0,0.43-0.17,0.43-0.4V9.72C8.28,9.5,8.08,9.3,7.85,9.3L7.85,9.3z
	"/>
</svg>
